Coordinates
version=1
nRows=29
nColumns=22
inDegrees=yes

Units are S.I. units (second, meters, Newtons, ...)
If the header above contains a line with 'inDegrees', this indicates whether rotational values are in degrees (yes) or radians (no).

endheader
time	pelvis_tilt	pelvis_list	pelvis_rotation	pelvis_tx	pelvis_ty	pelvis_tz	hip_flexion_r	hip_adduction_r	hip_rotation_r	knee_angle_r	ankle_angle_r	subtalar_angle_r	hip_flexion_l	hip_adduction_l	hip_rotation_l	knee_angle_l	ankle_angle_l	subtalar_angle_l	lumbar_extension	lumbar_bending	lumbar_rotation
      0.01000000	     -0.61488186	     -2.08213212	      1.81069593	      0.13283706	      0.95777270	      1.18461482	      4.39215030	      2.10162975	     -5.47287914	    -15.33033959	     13.03620752	     -1.09051104	      3.62771880	     -3.56678803	     -8.87023013	    -15.11203539	     10.66406405	     -6.77880362	      0.80939241	      2.56732182	     -8.40304023
      0.02000000	     -0.58786374	     -2.06335266	      1.83346896	      0.13289944	      0.95778038	      1.18453739	      4.34197786	      2.08259049	     -5.45275235	    -15.30630836	     13.05115459	     -1.09198871	      3.64322824	     -3.54806702	     -8.85271327	    -15.19407251	     10.67252441	     -6.80664965	      0.80522360	      2.54956852	     -8.41448416
      0.03000000	     -0.55472351	     -2.05354052	      1.86340127	      0.13297228	      0.95779067	      1.18443813	      4.28455480	      2.07131259	     -5.45424352	    -15.28356844	     13.07641151	     -1.09695288	      3.65197670	     -3.53713931	     -8.82502596	    -15.27327777	     10.68465934	     -6.83532147	      0.79904893	      2.54475309	     -8.42709058
      0.04000000	     -0.52126386	     -2.04680934	      1.89419491	      0.13305106	      0.95780078	      1.18433387	      4.22100450	      2.06198072	     -5.46810565	    -15.25040352	     13.09817290	     -1.10304151	      3.66010056	     -3.52942562	     -8.79294914	    -15.35209897	     10.69961163	     -6.86167068	      0.79727604	      2.54571206	     -8.43863286
      0.05000000	     -0.46950447	     -2.06069345	      1.94681451	      0.13313989	      0.95783358	      1.18421342	      4.12751914	      2.07541822	     -5.51963342	    -15.20050508	     13.11555907	     -1.11911855	      3.64973526	     -3.54372894	     -8.73321373	    -15.42736864	     10.73164835	     -6.91567637	      0.77929378	      2.57013561	     -8.49511872
      0.06000000	     -0.44916611	     -2.05270953	      1.96384961	      0.13320583	      0.95783356	      1.18412627	      4.07534833	      2.06455405	     -5.52966781	    -15.15886220	     13.11995757	     -1.12278380	      3.66711138	     -3.53359274	     -8.71130536	    -15.49825129	     10.73536979	     -6.92770134	      0.79347863	      2.57112708	     -8.46798432
      0.07000000	     -0.42063913	     -2.06665842	      1.98971724	      0.13326590	      0.95783691	      1.18404887	      4.00781166	      2.07958147	     -5.55464890	    -15.10331565	     13.12742566	     -1.13431192	      3.68603281	     -3.54974395	     -8.67788513	    -15.58642948	     10.76718914	     -6.95842017	      0.80013503	      2.59559225	     -8.47892289
      0.08000000	     -0.40631370	     -2.06342593	      1.99978975	      0.13331268	      0.95783183	      1.18397772	      3.96384800	      2.07352667	     -5.56717635	    -15.05990765	     13.13163102	     -1.13781103	      3.70904264	     -3.54540893	     -8.65956582	    -15.65645727	     10.77487246	     -6.96744779	      0.82021247	      2.60151317	     -8.43913007
      0.09000000	     -0.39151429	     -2.06822834	      2.01045166	      0.13335445	      0.95782601	      1.18392295	      3.91977794	      2.07804374	     -5.57618999	    -15.01631137	     13.13648048	     -1.14248808	      3.73650651	     -3.55247841	     -8.64312333	    -15.73538837	     10.79296723	     -6.98012451	      0.83942151	      2.61409929	     -8.40243157
      0.10000000	     -0.37801109	     -2.07734275	      2.01737125	      0.13339179	      0.95782219	      1.18387118	      3.88126544	      2.08759768	     -5.58045498	    -14.97818583	     13.13756927	     -1.14760692	      3.76424118	     -3.56365713	     -8.63004640	    -15.81288278	     10.81353107	     -6.99283988	      0.85850419	      2.63118638	     -8.36084310
      0.11000000	     -0.36533167	     -2.08573243	      2.01919014	      0.13342588	      0.95782065	      1.18382794	      3.84838660	      2.09633457	     -5.57847456	    -14.94795257	     13.13643014	     -1.15254884	      3.78903721	     -3.57461670	     -8.62063704	    -15.88433551	     10.83162851	     -7.00354602	      0.87651118	      2.64863679	     -8.31406950
      0.12000000	     -0.35241399	     -2.09498775	      2.01869372	      0.13345329	      0.95782158	      1.18378787	      3.81896339	      2.10637984	     -5.56910460	    -14.92225004	     13.13403730	     -1.15789705	      3.81171009	     -3.58660889	     -8.61538120	    -15.95296903	     10.84977606	     -7.01369909	      0.89201044	      2.66547558	     -8.26013928
      0.13000000	     -0.33959452	     -2.10095635	      2.00847730	      0.13347924	      0.95782596	      1.18375526	      3.79403095	      2.11234477	     -5.55800276	    -14.90255886	     13.13241280	     -1.16238592	      3.82686702	     -3.59333008	     -8.61085890	    -16.01133636	     10.86329005	     -7.02122291	      0.90527886	      2.68126014	     -8.20832924
      0.14000000	     -0.32573333	     -2.10787737	      2.00750873	      0.13350957	      0.95783306	      1.18372128	      3.76875308	      2.12054175	     -5.53917544	    -14.88781986	     13.13086397	     -1.16702592	      3.83859296	     -3.60290380	     -8.61164732	    -16.06205166	     10.87784250	     -7.02880614	      0.91691322	      2.69126137	     -8.14891431
      0.15000000	     -0.31239381	     -2.11362628	      1.99844764	      0.13353194	      0.95784274	      1.18369259	      3.74690149	      2.12706061	     -5.51758487	    -14.87586738	     13.12950837	     -1.17197719	      3.84275423	     -3.60934862	     -8.61689098	    -16.09967023	     10.89185882	     -7.03566987	      0.92614673	      2.70346326	     -8.09522894
      0.16000000	     -0.29238357	     -2.12410653	      1.97737052	      0.13355967	      0.95786263	      1.18368914	      3.71965728	      2.14260045	     -5.46097927	    -14.86715943	     13.12167660	     -1.18701318	      3.82613035	     -3.62371046	     -8.65693656	    -16.11566692	     10.91559900	     -7.04690663	      0.92514118	      2.72099147	     -8.03338481
      0.17000000	     -0.28489139	     -2.12342552	      1.98317702	      0.13357912	      0.95786488	      1.18364414	      3.71125884	      2.13991696	     -5.45883774	    -14.87098041	     13.12161085	     -1.18760241	      3.82226221	     -3.62137314	     -8.65636773	    -16.12276937	     10.91503986	     -7.04693084	      0.93868606	      2.72357766	     -8.02625684
      0.18000000	     -0.27378748	     -2.11931891	      1.98931059	      0.13358326	      0.95787100	      1.18361358	      3.68851984	      2.13584394	     -5.45616440	    -14.85331709	     13.12710986	     -1.19116259	      3.82013535	     -3.61646537	     -8.64955105	    -16.14038226	     10.91713614	     -7.04845507	      0.94247941	      2.71499894	     -7.98096566
      0.19000000	     -0.26788667	     -2.11905443	      1.99453292	      0.13358028	      0.95786804	      1.18357399	      3.68327552	      2.13359910	     -5.45356760	    -14.85675315	     13.12726183	     -1.19168085	      3.81554581	     -3.61470363	     -8.65009528	    -16.14262255	     10.91750546	     -7.04861154	      0.95149733	      2.71728850	     -7.97781671
      0.20000000	     -0.26237186	     -2.11876796	      2.00248019	      0.13356886	      0.95786377	      1.18354143	      3.67816086	      2.13213772	     -5.45097011	    -14.85892629	     13.12802392	     -1.19228106	      3.81104845	     -3.61385241	     -8.65050593	    -16.14296973	     10.91840912	     -7.04889938	      0.95882642	      2.71606313	     -7.97416583
      0.21000000	     -0.23829447	     -2.10121400	      2.01392721	      0.13358340	      0.95788996	      1.18350504	      3.63477177	      2.11405193	     -5.44804826	    -14.83264868	     13.15085543	     -1.20404021	      3.76740547	     -3.58996220	     -8.63130768	    -16.11167029	     10.93241112	     -7.05234748	      0.94537258	      2.69151893	     -7.96498204
      0.22000000	     -0.23253318	     -2.10228770	      2.02516784	      0.13355142	      0.95788624	      1.18348160	      3.63263418	      2.11491327	     -5.44620447	    -14.83876053	     13.15000960	     -1.20456940	      3.76303668	     -3.59148072	     -8.63271922	    -16.10928585	     10.93081496	     -7.05196172	      0.94851902	      2.68801669	     -7.96661033
      0.23000000	     -0.21308949	     -2.09417167	      2.04498058	      0.13352309	      0.95790641	      1.18343957	      3.61677354	      2.10388788	     -5.46131742	    -14.84988624	     13.15309117	     -1.21186883	      3.72890270	     -3.57865313	     -8.61425365	    -16.07724551	     10.91919538	     -7.04871440	      0.93426425	      2.67701053	     -8.01588681
      0.24000000	     -0.21024139	     -2.09463257	      2.05771969	      0.13345939	      0.95790101	      1.18343400	      3.61647900	      2.10599375	     -5.46205100	    -14.84833418	     13.15382269	     -1.21233425	      3.72807022	     -3.58021844	     -8.61348145	    -16.07097691	     10.91936784	     -7.04887426	      0.93302201	      2.66758380	     -8.01610394
      0.25000000	     -0.18615660	     -2.07316233	      2.09751395	      0.13343720	      0.95793956	      1.18336087	      3.57892188	      2.07897313	     -5.51166533	    -14.83168408	     13.16558175	     -1.22434309	      3.68264932	     -3.54672544	     -8.54625724	    -16.02517539	     10.89992290	     -7.04763523	      0.91450824	      2.63691293	     -8.07093787
      0.26000000	     -0.18498452	     -2.07452004	      2.10751066	      0.13336627	      0.95793673	      1.18337055	      3.58119469	      2.08235371	     -5.51096111	    -14.83110821	     13.16522140	     -1.22456575	      3.68068755	     -3.55022914	     -8.54888348	    -16.01421102	     10.90069916	     -7.04810454	      0.91377732	      2.62629952	     -8.07638706
      0.27000000	     -0.17271650	     -2.05168729	      2.13237601	      0.13335224	      0.95796931	      1.18331999	      3.55586475	      2.05526428	     -5.53747146	    -14.81308187	     13.16518865	     -1.23272972	      3.63437194	     -3.51585666	     -8.50918813	    -15.94742900	     10.87305968	     -7.04833081	      0.91123273	      2.59571149	     -8.13476065
      0.28000000	     -0.17236705	     -2.04938291	      2.14252461	      0.13330966	      0.95797700	      1.18331581	      3.55442579	      2.05313127	     -5.54163607	    -14.80879298	     13.16522722	     -1.23449222	      3.61578064	     -3.51236794	     -8.51360347	    -15.90816554	     10.87031709	     -7.04993614	      0.91713030	      2.58496978	     -8.16040835
      0.29000000	     -0.17233131	     -2.03862154	      2.15338624	      0.13327180	      0.95799212	      1.18331075	      3.54719652	      2.04200504	     -5.54892519	    -14.79414041	     13.16309549	     -1.23658236	      3.58925905	     -3.49715615	     -8.50404218	    -15.85458047	     10.85425982	     -7.04939883	      0.92349439	      2.56361342	     -8.19180251
